<svg id="Calque_1" data-name="Calque 1" xmlns="http://www.w3.org/2000/svg" viewBox="0 0 488 487.99"><defs><style>.cls-1{fill:#7ed1b5;}</style></defs><title>hupomnesis_logo</title><rect class="cls-1" x="357.58" y="336.6" width="68.76" height="66.17" transform="translate(-245.1 17.96) rotate(-18.52)"/><path d="M324.89,146.1c-167.65,50.3-206.8,123-156.49,290.64s123,206.81,290.65,156.49,206.82-123,156.51-290.64S492.59,95.8,324.89,146.1ZM530.74,411.45,499.13,422l10.95,32.73a25.29,25.29,0,1,1-48,16.07l-11-32.73L386,459.94l11,32.71a25.29,25.29,0,1,1-48,16.08L338,476l-31.63,10.61a25.31,25.31,0,0,1-16.05-48L321.94,428l-21-62.76-31.62,10.6a25.29,25.29,0,0,1-16.08-48l31.64-10.61-11-32.71a25.3,25.3,0,0,1,48-16.08l10.94,32.74L398,279.4l-11-32.72a25.3,25.3,0,1,1,48-16.06L446,263.33l31.64-10.59a25.3,25.3,0,0,1,16.05,48L462.05,311.3l21,62.78,31.63-10.61a25.3,25.3,0,1,1,16,48Z" transform="translate(-147.98 -125.67)"/><rect x="357.58" y="336.6" width="68.76" height="66.17" transform="translate(-245.1 17.96) rotate(-18.52)"/><polygon points="200.89 223.53 221.91 286.28 287.12 264.45 260.31 217.54 200.89 223.53"/><polygon points="200.89 223.53 221.91 286.28 287.12 264.45 241.26 257.57 200.89 223.53"/><path d="M388.3,250.46a25.21,25.21,0,0,0-1.26,19.1l4.08,12.17,6.9-2.32Z" transform="translate(-147.98 -125.67)"/><path d="M275.14,288.36a25.18,25.18,0,0,0-1.26,19.11l4.06,12.13,6.9-2.3Z" transform="translate(-147.98 -125.67)"/><path d="M530.74,411.45,499.13,422,506,442.61l24.72-8.29a25.29,25.29,0,0,0,16-32,26.25,26.25,0,0,0-1.5-3.32A25.14,25.14,0,0,1,530.74,411.45Z" transform="translate(-147.98 -125.67)"/><path d="M324.89,169c167.7-50.3,240.37-11.19,290.66,156.5,11.79,39.32,18.61,73.38,20.06,103.17,1.86-34.9-5.13-76.26-20.06-126-50.29-167.7-123-206.8-290.66-156.5-128.34,38.49-181.3,90.16-176.55,187.45C152.72,250.81,207,204.33,324.89,169Z" transform="translate(-147.98 -125.67)"/><path d="M493.65,300.72,462,311.3l6.89,20.56,24.72-8.27a25.29,25.29,0,0,0,16-32,24.81,24.81,0,0,0-1.48-3.32A25.22,25.22,0,0,1,493.65,300.72Z" transform="translate(-147.98 -125.67)"/><path d="M237.27,382.77a25.28,25.28,0,0,0,32,16l31.62-10.6L315,430.33l6.89-2.31-21-62.76-31.62,10.6a25.26,25.26,0,0,1-30.57-12.56A25.14,25.14,0,0,0,237.27,382.77Z" transform="translate(-147.98 -125.67)"/><path d="M494.13,486.76a25.22,25.22,0,0,1-32-15.94l-11-32.73L386,459.94l6.89,20.56L451.16,461l11,32.74a25.29,25.29,0,0,0,48-16.08l-1.26-3.78A25.16,25.16,0,0,1,494.13,486.76Z" transform="translate(-147.98 -125.67)"/><path d="M381,524.69a25.31,25.31,0,0,1-32-16L338,476l-31.63,10.61A25.29,25.29,0,0,1,275.8,474a25.29,25.29,0,0,0,30.57,35.45L338,498.88l11,32.73a25.29,25.29,0,1,0,48-16.08l-1.26-3.77A25.32,25.32,0,0,1,381,524.69Z" transform="translate(-147.98 -125.67)"/><path d="M421.64,541.46c-138.63,0-253.4-99.94-273.33-230.25-1.76,34.82,5.22,76,20.09,125.53,50.3,167.68,123,206.81,290.64,156.49,110.58-33.17,165.22-76.09,175.21-149.51C583.56,503.42,507.14,541.46,421.64,541.46Z" transform="translate(-147.98 -125.67)"/></svg>